<?xml version="1.0" encoding="utf-8"?>
<!-- Generator: Adobe Illustrator 27.5.0, SVG Export Plug-In . SVG Version: 6.00 Build 0)  -->
<svg version="1.1" id="Layer_1" xmlns="http://www.w3.org/2000/svg" xmlns:xlink="http://www.w3.org/1999/xlink" x="0px" y="0px"
	 width="523.2px" height="70.8px" viewBox="0 0 523.2 70.8" style="enable-background:new 0 0 523.2 70.8;" xml:space="preserve">
<style type="text/css">
	.st0{fill:#8F9198;}
</style>
<g>
	<g>
		<g>
			<path class="st0" d="M168.4,19.9V1.2h7.6c0.6,0,1.1,0.1,1.7,0.2c0.6,0.1,1.1,0.4,1.6,0.8s0.9,1,1.2,1.8s0.5,1.9,0.5,3.2
				s-0.2,2.4-0.5,3.2s-0.7,1.5-1.2,1.9s-1.1,0.7-1.6,0.9c-0.6,0.2-1.2,0.2-1.7,0.2c-0.3,0-0.6,0-1.1,0s-1,0-1.5-0.1
				c-0.5,0-1-0.1-1.4-0.1s-0.8-0.1-1-0.1v6.6h-2.6V19.9z M171,11.3h4.6c0.5,0,1-0.1,1.5-0.4s0.8-0.7,1-1.2c0.2-0.6,0.4-1.4,0.4-2.4
				s-0.1-1.8-0.4-2.3s-0.6-1-1-1.2s-0.9-0.3-1.3-0.3H171V11.3z"/>
			<path class="st0" d="M193.8,20c-1.2,0-2.3-0.1-3.2-0.4c-0.9-0.2-1.7-0.7-2.3-1.3c-0.6-0.6-1.1-1.6-1.4-2.8
				c-0.3-1.3-0.5-2.9-0.5-4.9s0.2-3.7,0.5-4.9c0.3-1.3,0.8-2.2,1.4-2.9c0.6-0.7,1.4-1.1,2.3-1.4c0.9-0.2,2-0.4,3.2-0.4
				c1.3,0,2.3,0.1,3.3,0.4c0.9,0.2,1.7,0.7,2.3,1.4s1.1,1.6,1.4,2.9c0.3,1.3,0.5,2.9,0.5,4.9s-0.2,3.7-0.5,4.9
				c-0.3,1.3-0.8,2.2-1.4,2.8c-0.6,0.6-1.4,1.1-2.3,1.3C196.1,19.9,195,20,193.8,20z M193.8,17.7c0.9,0,1.6-0.1,2.2-0.3
				c0.6-0.2,1.1-0.5,1.5-1s0.7-1.2,0.8-2.2c0.2-0.9,0.3-2.2,0.3-3.7c0-1.6-0.1-2.9-0.3-3.9s-0.5-1.7-0.8-2.2c-0.4-0.5-0.9-0.8-1.5-1
				s-1.4-0.3-2.2-0.3s-1.5,0.1-2.2,0.3c-0.6,0.2-1.1,0.5-1.5,1s-0.7,1.2-0.9,2.2s-0.3,2.3-0.3,3.9c0,1.5,0.1,2.8,0.2,3.7
				c0.2,0.9,0.4,1.7,0.8,2.2c0.4,0.5,0.9,0.8,1.5,1C192.2,17.6,192.9,17.7,193.8,17.7z"/>
			<path class="st0" d="M210.7,19.9L206,1.2h2.6l3.7,15.1l4.3-15.1h2.5l4.2,15.1L227,1.2h2.6L225,19.9h-2.7l-4.4-15.1l-4.5,15.1
				H210.7z"/>
			<path class="st0" d="M238.8,20c-0.4,0-0.9,0-1.3-0.1c-0.5-0.1-0.9-0.2-1.4-0.5c-0.4-0.2-0.8-0.6-1.1-1.1s-0.4-1.2-0.4-2.1V5.1
				c0-0.7,0.1-1.4,0.3-1.9s0.5-0.9,0.9-1.2s0.8-0.5,1.3-0.6s0.9-0.2,1.4-0.2c1.1,0,2.1,0,3,0.1c0.9,0,1.8,0.1,2.6,0.1
				s1.6,0.1,2.3,0.1v2.1h-7.2c-0.6,0-1.1,0.2-1.5,0.5c-0.4,0.3-0.5,0.8-0.5,1.5v3.9l8.1,0.2v2l-8.1,0.2v3.8c0,0.6,0.1,1,0.3,1.3
				s0.4,0.5,0.8,0.6s0.6,0.2,1,0.2h7.2v2.1c-0.8,0.1-1.6,0.1-2.5,0.1s-1.7,0.1-2.6,0.1S239.7,20,238.8,20z"/>
			<path class="st0" d="M252.7,19.9V1.2h7.5c0.6,0,1.3,0.1,1.9,0.2c0.6,0.2,1.1,0.4,1.6,0.8s0.8,1,1.1,1.7c0.3,0.7,0.4,1.7,0.4,2.9
				c0,1-0.1,1.8-0.3,2.4c-0.2,0.6-0.5,1.2-0.8,1.5c-0.3,0.4-0.7,0.7-1.1,0.9s-0.8,0.3-1.2,0.4l3.7,7.8h-2.6l-3.5-7.4
				c-0.3,0-0.6,0-0.9,0c-0.4,0-0.7,0-1.1,0s-0.8,0-1.2,0c-0.4,0-0.7,0-1,0v7.5H252.7z M255.2,10.4h4.5c0.4,0,0.8,0,1.1-0.1
				c0.3-0.1,0.6-0.3,0.9-0.5s0.5-0.6,0.6-1.1c0.2-0.5,0.2-1.1,0.2-1.8s-0.1-1.3-0.2-1.7c-0.2-0.4-0.4-0.8-0.6-1
				c-0.3-0.2-0.6-0.4-0.9-0.5s-0.7-0.1-1.1-0.1h-4.5L255.2,10.4L255.2,10.4z"/>
			<path class="st0" d="M275.5,20c-0.4,0-0.9,0-1.3-0.1c-0.5-0.1-0.9-0.2-1.4-0.5c-0.4-0.2-0.8-0.6-1.1-1.1s-0.4-1.2-0.4-2.1V5.1
				c0-0.7,0.1-1.4,0.3-1.9c0.2-0.5,0.5-0.9,0.9-1.2s0.8-0.5,1.3-0.6s0.9-0.2,1.4-0.2c1.1,0,2.1,0,3,0.1c0.9,0,1.8,0.1,2.6,0.1
				c0.8,0,1.6,0.1,2.3,0.1v2.1h-7.2c-0.6,0-1.1,0.2-1.5,0.5c-0.4,0.3-0.5,0.8-0.5,1.5v3.9l8.1,0.2v2l-8.1,0.2v3.8
				c0,0.6,0.1,1,0.3,1.3c0.2,0.3,0.4,0.5,0.8,0.6c0.3,0.1,0.6,0.2,1,0.2h7.2v2.1c-0.8,0.1-1.6,0.1-2.5,0.1s-1.7,0.1-2.6,0.1
				S276.3,20,275.5,20z"/>
			<path class="st0" d="M289.3,19.9V1.2h7.6c1.2,0,2.1,0.2,2.9,0.6s1.4,1,1.9,1.8s0.8,1.8,1.1,2.9c0.2,1.2,0.3,2.5,0.3,3.9
				c0,2-0.2,3.7-0.7,5.1s-1.2,2.4-2.1,3.2c-0.9,0.7-2.1,1.1-3.5,1.1L289.3,19.9L289.3,19.9z M291.9,17.6h4.8c0.9,0,1.7-0.3,2.3-0.9
				c0.6-0.6,1-1.4,1.3-2.4s0.4-2.3,0.4-3.8c0-1.3-0.1-2.5-0.2-3.4c-0.2-0.9-0.4-1.6-0.7-2.2c-0.3-0.6-0.7-0.9-1.2-1.2
				c-0.5-0.2-1.1-0.4-1.8-0.4H292L291.9,17.6L291.9,17.6z"/>
			<path class="st0" d="M319.3,19.9V1.2h7c1.7,0,2.9,0.4,3.7,1.2c0.8,0.8,1.2,2,1.2,3.6c0,0.8-0.1,1.5-0.3,2c-0.2,0.6-0.5,1-0.9,1.4
				s-0.8,0.6-1.3,0.7c0.4,0.1,0.7,0.3,1.1,0.5s0.7,0.5,1.1,0.8c0.3,0.4,0.6,0.8,0.8,1.3c0.2,0.5,0.3,1.2,0.3,1.9
				c0,1.3-0.2,2.3-0.6,3.1s-1,1.3-1.8,1.6c-0.8,0.3-1.8,0.5-2.9,0.5h-7.4V19.9z M321.8,9.3h4.5c0.7,0,1.3-0.3,1.8-0.8
				c0.4-0.5,0.7-1.2,0.7-2.1c0-1.1-0.2-1.9-0.7-2.3c-0.5-0.4-1.1-0.6-1.9-0.6h-4.4V9.3z M321.8,17.6h4.6c0.6,0,1.1-0.1,1.6-0.3
				c0.4-0.2,0.8-0.5,1-1c0.3-0.5,0.4-1.1,0.4-2c0-0.6-0.1-1.2-0.4-1.6c-0.3-0.4-0.6-0.8-1.1-1c-0.4-0.2-1-0.4-1.5-0.4h-4.6V17.6z"/>
			<path class="st0" d="M342.6,19.9v-6l-5.8-12.7h2.7l4.5,10.1l4.5-10.1h2.6l-5.8,12.7v6H342.6z"/>
		</g>
	</g>
	<g>
		<path class="st0" d="M167.2,70.6V35.1h5.7l14.7,23.4V35.1h7v35.5h-5.7l-14.7-23.4v23.4H167.2z"/>
		<path class="st0" d="M215.2,70.8c-0.8,0-1.6-0.1-2.6-0.2s-1.9-0.4-2.9-1c-0.9-0.5-1.6-1.3-2.2-2.3c-0.6-1.1-0.9-2.5-0.9-4.3V43.2
			c0-1.6,0.2-2.9,0.7-3.9c0.5-1.1,1.1-1.9,1.9-2.5c0.8-0.6,1.7-1,2.6-1.3c1-0.3,1.9-0.4,2.8-0.4c2.4,0,4.5,0,6.3,0.1
			s3.5,0.1,4.9,0.2c1.5,0.1,2.8,0.2,4,0.3v6h-13.1c-1,0-1.7,0.2-2.3,0.7c-0.5,0.5-0.8,1.2-0.8,2.2v5.1l13.9,0.4v5.6l-13.9,0.4V61
			c0,0.8,0.1,1.5,0.4,2c0.3,0.4,0.6,0.8,1.1,1c0.5,0.2,1,0.2,1.5,0.2h13.3v6c-1.4,0.2-2.9,0.3-4.7,0.4c-1.7,0.1-3.4,0.2-5.1,0.2
			C218.4,70.8,216.8,70.8,215.2,70.8z"/>
		<path class="st0" d="M249.3,70.6V41.4h-9.6V35H266v6.4h-9.7v29.1L249.3,70.6L249.3,70.6z"/>
		<path class="st0" d="M275.8,70.6V35.1h7v14.8h13.3V35.1h7.1v35.5h-7.1V56.2h-13.3v14.4H275.8z"/>
		<path class="st0" d="M323.8,70.8c-0.8,0-1.6-0.1-2.6-0.2s-1.9-0.4-2.9-1c-0.9-0.5-1.6-1.3-2.2-2.3c-0.6-1.1-0.9-2.5-0.9-4.3V43.2
			c0-1.6,0.2-2.9,0.7-3.9c0.5-1.1,1.1-1.9,1.9-2.5s1.7-1,2.6-1.3c1-0.3,1.9-0.4,2.8-0.4c2.4,0,4.5,0,6.3,0.1s3.5,0.1,4.9,0.2
			c1.5,0.1,2.8,0.2,4,0.3v6h-13.1c-1,0-1.7,0.2-2.3,0.7c-0.5,0.5-0.8,1.2-0.8,2.2v5.1l13.9,0.4v5.6l-13.9,0.4V61
			c0,0.8,0.1,1.5,0.4,2c0.3,0.4,0.6,0.8,1.1,1c0.5,0.2,1,0.2,1.5,0.2h13.3v6c-1.4,0.2-2.9,0.3-4.7,0.4c-1.7,0.1-3.4,0.2-5.1,0.2
			C327,70.8,325.4,70.8,323.8,70.8z"/>
		<path class="st0" d="M351.6,70.6V35.1h14.5c1.4,0,2.7,0.2,3.9,0.5c1.2,0.3,2.3,0.9,3.2,1.7c0.9,0.8,1.6,2,2.1,3.5s0.8,3.4,0.8,5.7
			c0,1.6-0.2,3-0.5,4.2s-0.7,2.1-1.3,2.8c-0.5,0.7-1.1,1.3-1.8,1.8c-0.7,0.4-1.3,0.8-2,1.1l6.6,14.3H370l-5.7-13.2
			c-0.4,0-0.8,0-1.3,0s-1,0-1.5,0s-1,0-1.5,0s-1,0-1.4,0v13.3h-7V70.6z M358.7,51.7h6.3c0.6,0,1.2-0.1,1.7-0.2
			c0.5-0.2,0.9-0.4,1.3-0.8c0.4-0.4,0.7-1,0.9-1.6c0.2-0.7,0.3-1.5,0.3-2.6c0-1-0.1-1.8-0.3-2.4c-0.2-0.7-0.5-1.2-0.9-1.5
			c-0.4-0.4-0.8-0.6-1.3-0.8s-1.1-0.2-1.7-0.2h-6.3V51.7z"/>
		<path class="st0" d="M387.4,70.6l4.1-35.5h6.7l8.1,27.2l8-27.2h6.7l4.1,35.5h-6.8l-3-26.2l1.1,0.1l-6.9,26.1h-6.6l-7-26.1h1.2
			l-2.9,26.1H387.4z"/>
		<path class="st0" d="M437.4,70.6V35.1h7v35.5H437.4z"/>
		<path class="st0" d="M456.6,70.6V35.1h5.7L477,58.5V35.1h7v35.5h-5.7l-14.7-23.4v23.4H456.6z"/>
		<path class="st0" d="M496.1,70.6V35.1H511c2.4,0,4.4,0.4,5.9,1.3c1.6,0.8,2.8,2,3.8,3.6c0.9,1.6,1.6,3.4,2,5.6
			c0.4,2.2,0.6,4.6,0.6,7.2c0,4-0.5,7.3-1.4,9.9c-0.9,2.6-2.2,4.6-4,5.9s-4.1,1.9-6.8,1.9L496.1,70.6L496.1,70.6z M503.1,64.2h7.1
			c1.5,0,2.6-0.4,3.5-1.2c0.9-0.9,1.5-2.1,1.9-3.8s0.6-3.8,0.6-6.3c0-2.3-0.1-4.2-0.4-5.7c-0.3-1.5-0.6-2.7-1.1-3.5
			s-1.1-1.4-1.9-1.7c-0.7-0.3-1.6-0.5-2.6-0.5h-7.1L503.1,64.2L503.1,64.2z"/>
	</g>
	<g>
		<g>
			<g>
				<g id="XMLID_00000090994399853698536470000005882001991371276177_">
					<g>
						<path class="st0" d="M42.8,1.7l-5,18.8c-0.9-0.2-1.8-0.3-2.8-0.3c-1.4,0-2.7,0.2-4,0.5c-2.3,0.6-4.3,1.7-6,3.2L11.2,10.2
							C13,8.5,14.9,7.1,17,5.8l1.1-0.6C20.6,3.8,23.2,2.8,26,2c2.9-0.8,5.9-1.2,9-1.2C37.7,0.9,40.3,1.2,42.8,1.7z"/>
						<path class="st0" d="M139,28c0.6,2.5,0.9,5.1,0.9,7.8c0,3.1-0.4,6.2-1.2,9c-0.7,2.8-1.8,5.4-3.2,7.9l-0.6,1.1
							c-1.3,2.1-2.7,4.1-4.4,5.8l-13.7-13.7c1.5-1.7,2.6-3.8,3.2-6.1c0.4-1.3,0.5-2.6,0.5-4c0-0.9-0.1-1.8-0.2-2.7L139,28z"/>
						<path class="st0" d="M99.7,50.5l-5.1,18.8c-2.3-0.7-4.6-1.7-6.7-2.8l-1-0.6c-2.5-1.5-4.7-3.3-6.8-5.3l0,0l-1-1.1
							c-0.8-0.9-1.5-1.8-2.2-2.7l13.6-13.5l3,3.1c0.1,0.2,0.3,0.3,0.4,0.5C95.5,48.5,97.5,49.7,99.7,50.5z"/>
						<path class="st0" d="M63,14.9L49.4,28.4l0,0l-3-3.1c-0.2-0.2-0.3-0.3-0.4-0.5c-1.6-1.6-3.6-2.9-5.8-3.7l5-18.8
							C47.5,3,49.8,4,51.9,5.1l1,0.6c2.5,1.5,4.8,3.3,6.8,5.3l0,0l1,1.1C61.5,13,62.3,13.9,63,14.9z"/>
						<path class="st0" d="M115,47.7l13.7,13.8c-1.8,1.7-3.7,3.1-5.8,4.4l-1.1,0.6c-2.5,1.4-5.1,2.4-7.9,3.2c-2.9,0.8-5.9,1.2-9,1.2
							c-2.7,0-5.3-0.3-7.8-0.9l5.1-18.8c0.9,0.2,1.8,0.3,2.8,0.3c1.4,0,2.7-0.2,4-0.5C111.2,50.3,113.3,49.2,115,47.7z"/>
						<path class="st0" d="M43.5,48.9l13.7,14c-1.3,1.1-2.7,2.1-4.2,3l-1.1,0.6c-2.4,1.4-5.1,2.4-7.8,3.2c-2.9,0.8-5.9,1.2-9.1,1.2
							c-3.1,0-6.2-0.4-9-1.2c-2.8-0.7-5.4-1.8-7.8-3.2L17,65.8c-2.4-1.5-4.7-3.2-6.7-5.2S6.5,56.3,5,53.9l-0.6-1.1
							c-1.2-2.1-2.1-4.3-2.8-6.7L20.3,41c0.8,2.2,2,4.2,3.7,5.9c1.9,1.9,4.3,3.3,7,4c1.3,0.4,2.6,0.5,4,0.5s2.7-0.2,4-0.5
							C40.6,50.5,42.1,49.8,43.5,48.9z"/>
						<path class="st0" d="M9.4,12l13.7,13.7c-1.5,1.7-2.6,3.8-3.2,6.1c-0.4,1.3-0.5,2.6-0.5,4c0,0.9,0.1,1.8,0.2,2.7L0.9,43.7
							C0.3,41.2,0,38.5,0,35.8c0-3.1,0.4-6.2,1.2-9.1C1.9,24,3,21.4,4.4,18.9l0.6-1C6.3,15.8,7.7,13.8,9.4,12z"/>
						<path class="st0" d="M138.4,25.6l-18.8,5.1c-0.8-2.2-2-4.2-3.7-5.9c-1.9-1.9-4.3-3.3-7-4c-1.3-0.3-2.6-0.5-4-0.5
							s-2.7,0.2-4,0.5c-1.6,0.4-3.1,1.1-4.5,2l-13.7-14c1.3-1.1,2.7-2.1,4.2-3L88,5.2c2.4-1.4,5.1-2.4,7.8-3.2
							c2.9-0.8,5.9-1.2,9.1-1.2c3.1,0,6.2,0.4,9,1.2c2.8,0.7,5.4,1.8,7.8,3.2l1.1,0.7c2.5,1.5,4.7,3.2,6.7,5.2s3.8,4.3,5.3,6.7
							l0.6,1.1C136.7,21,137.7,23.2,138.4,25.6z"/>
					</g>
				</g>
			</g>
		</g>
	</g>
</g>
</svg>
